<svg width="110" height="36" viewBox="0 0 110 36" fill="none" xmlns="http://www.w3.org/2000/svg">
<path d="M36.7324 5.14864C36.7324 3.38833 34.6225 2.48657 33.3502 3.70314L18.9034 17.5174C18.5088 17.8948 18.2857 18.417 18.2857 18.9629L18.2857 30.8513C18.2857 32.6116 20.3956 33.5133 21.6679 32.2968L36.1146 18.4825C36.5092 18.1052 36.7324 17.5829 36.7324 17.037L36.7324 5.14864Z" fill="#FFC0B4"/>
<path d="M57.908 23.469H48.476V10.167H51.158V20.913H57.908V23.469ZM62.1941 10.995C62.1941 11.439 62.0441 11.811 61.7441 12.111C61.4441 12.411 61.0721 12.561 60.6281 12.561C60.1841 12.561 59.8121 12.411 59.5121 12.111C59.2121 11.811 59.0621 11.439 59.0621 10.995C59.0621 10.551 59.2121 10.185 59.5121 9.89699C59.8121 9.59699 60.1841 9.44699 60.6281 9.44699C61.0721 9.44699 61.4441 9.59699 61.7441 9.89699C62.0441 10.185 62.1941 10.551 62.1941 10.995ZM61.8881 13.659V23.469H59.3501V13.659H61.8881ZM66.6861 23.469H64.1481V13.659H66.6321V15.027C66.8961 14.535 67.3041 14.139 67.8561 13.839C68.4081 13.539 69.0261 13.389 69.7101 13.389C70.7781 13.389 71.6841 13.743 72.4281 14.451C73.1721 15.159 73.5441 16.167 73.5441 17.475V23.469H71.0061V18.159C71.0061 17.391 70.8201 16.797 70.4481 16.377C70.0761 15.945 69.5721 15.729 68.9361 15.729C68.2641 15.729 67.7181 15.963 67.2981 16.431C66.8901 16.887 66.6861 17.481 66.6861 18.213V23.469ZM83.2205 14.739V13.659H85.5605V22.497C85.5605 24.081 85.0565 25.329 84.0485 26.241C83.0285 27.165 81.7205 27.627 80.1245 27.627C78.4325 27.627 76.9325 27.153 75.6245 26.205L76.6145 24.297C77.7425 25.065 78.8885 25.449 80.0525 25.449C81.0005 25.449 81.7445 25.197 82.2845 24.693C82.8365 24.189 83.1125 23.535 83.1125 22.731V22.227C82.3565 23.067 81.3485 23.487 80.0885 23.487C78.6485 23.487 77.4725 23.013 76.5605 22.065C75.6485 21.117 75.1925 19.917 75.1925 18.465C75.1925 17.013 75.6725 15.807 76.6325 14.847C77.5925 13.887 78.7805 13.407 80.1965 13.407C81.3965 13.407 82.4045 13.851 83.2205 14.739ZM77.7485 18.483C77.7485 19.299 78.0065 19.965 78.5225 20.481C79.0505 21.009 79.6985 21.273 80.4665 21.273C81.2345 21.273 81.8825 21.009 82.4105 20.481C82.9265 19.953 83.1845 19.287 83.1845 18.483C83.1845 17.691 82.9265 17.037 82.4105 16.521C81.8825 15.993 81.2345 15.729 80.4665 15.729C79.6985 15.729 79.0505 15.993 78.5225 16.521C78.0065 17.037 77.7485 17.691 77.7485 18.483ZM95.529 22.551C94.737 23.319 93.639 23.703 92.235 23.703C90.831 23.703 89.727 23.319 88.923 22.551C88.131 21.771 87.735 20.697 87.735 19.329V13.659H90.273V19.329C90.273 19.953 90.447 20.451 90.795 20.823C91.143 21.195 91.623 21.381 92.235 21.381C92.847 21.381 93.327 21.195 93.675 20.823C94.023 20.451 94.197 19.953 94.197 19.329V13.659H96.735V19.329C96.735 20.709 96.333 21.783 95.529 22.551ZM106.388 14.829V13.659H108.8V23.469H106.388V22.335C105.548 23.247 104.504 23.703 103.256 23.703C101.84 23.703 100.676 23.211 99.7636 22.227C98.8516 21.243 98.3956 20.007 98.3956 18.519C98.3956 17.043 98.8576 15.825 99.7816 14.865C100.706 13.893 101.864 13.407 103.256 13.407C104.48 13.407 105.524 13.881 106.388 14.829ZM106.424 18.555C106.424 17.787 106.16 17.121 105.632 16.557C105.116 16.005 104.462 15.729 103.67 15.729C102.866 15.729 102.206 16.005 101.69 16.557C101.186 17.109 100.934 17.775 100.934 18.555C100.934 19.347 101.192 20.019 101.708 20.571C102.224 21.123 102.878 21.399 103.67 21.399C104.462 21.399 105.116 21.123 105.632 20.571C106.16 20.007 106.424 19.335 106.424 18.555Z" fill="#181B32"/>
<path d="M18.4468 5.14864C18.4468 3.38833 16.3368 2.48657 15.0646 3.70314L0.617795 17.5174C0.223203 17.8948 1.21207e-05 18.417 1.20252e-05 18.9629L9.94658e-06 30.8513C9.6388e-06 32.6116 2.10996 33.5133 3.38223 32.2968L17.829 18.4825C18.2236 18.1052 18.4468 17.5829 18.4468 17.037L18.4468 5.14864Z" fill="#524FD5"/>
</svg>
